<svg width="25" height="25" viewBox="0 0 25 25" fill="none" xmlns="http://www.w3.org/2000/svg">
<g clip-path="url(#clip0_303_40)">
<path d="M14 21H17H21V4H4V21H8H11L8 24H3.5L0.5 21V4L3.5 1H21.5L24.5 4V20.9126L21.5 24H17L14 21Z" fill="black" stroke="black"/>
<path d="M11.4224 14.11V21H7.78242V4.178H14.2564C16.4058 4.178 17.4804 5.322 17.4804 7.61V9.56C17.4804 10.9467 16.9864 11.8307 15.9984 12.212C16.8651 12.524 17.2984 13.2347 17.2984 14.344V21H13.6584V14.63C13.6584 14.2833 13.4938 14.11 13.1644 14.11H11.4224ZM11.4224 6.648V11.562H13.3464C13.4851 11.562 13.5978 11.51 13.6844 11.406C13.7884 11.302 13.8404 11.1807 13.8404 11.042V7.168C13.8404 7.02933 13.7884 6.908 13.6844 6.804C13.5978 6.7 13.4851 6.648 13.3464 6.648H11.4224Z" fill="black"/>
</g>
<defs>
<clipPath id="clip0_303_40">
<rect width="25" height="25" fill="white"/>
</clipPath>
</defs>
</svg>
